<mxfile host="Electron" agent="Mozilla/5.0 (X11; Linux x86_64) AppleWebKit/537.36 (KHTML, like Gecko) draw.io/24.7.17 Chrome/128.0.6613.36 Electron/32.0.1 Safari/537.36" version="24.7.17">
  <diagram name="Page-1" id="yUnTEx3fc2qi-SIGfh1y">
    <mxGraphModel dx="989" dy="578" grid="1" gridSize="10" guides="1" tooltips="1" connect="1" arrows="1" fold="1" page="1" pageScale="1" pageWidth="850" pageHeight="1100" math="0" shadow="0">
      <root>
        <mxCell id="0" />
        <mxCell id="1" parent="0" />
        <mxCell id="CjxLZqoS-NoNjMr_3jgI-1" value="Host" style="swimlane;whiteSpace=wrap;html=1;" vertex="1" parent="1">
          <mxGeometry x="10" y="10" width="830" height="370" as="geometry">
            <mxRectangle x="10" y="220" width="70" height="30" as="alternateBounds" />
          </mxGeometry>
        </mxCell>
        <mxCell id="CjxLZqoS-NoNjMr_3jgI-12" value="" style="rounded=0;whiteSpace=wrap;html=1;" vertex="1" parent="CjxLZqoS-NoNjMr_3jgI-1">
          <mxGeometry x="10" y="60" width="810" height="120" as="geometry" />
        </mxCell>
        <mxCell id="CjxLZqoS-NoNjMr_3jgI-3" value="Docker (Compose)" style="rounded=0;whiteSpace=wrap;html=1;" vertex="1" parent="CjxLZqoS-NoNjMr_3jgI-1">
          <mxGeometry x="20" y="300" width="800" height="60" as="geometry" />
        </mxCell>
        <mxCell id="CjxLZqoS-NoNjMr_3jgI-43" style="rounded=0;orthogonalLoop=1;jettySize=auto;html=1;exitX=0.5;exitY=1;exitDx=0;exitDy=0;" edge="1" parent="CjxLZqoS-NoNjMr_3jgI-1" source="CjxLZqoS-NoNjMr_3jgI-4">
          <mxGeometry relative="1" as="geometry">
            <mxPoint x="419.9999999999998" y="300" as="targetPoint" />
          </mxGeometry>
        </mxCell>
        <mxCell id="CjxLZqoS-NoNjMr_3jgI-4" value="setup&lt;div&gt;container&lt;/div&gt;" style="rounded=1;whiteSpace=wrap;html=1;fillColor=#f8cecc;strokeColor=#b85450;" vertex="1" parent="CjxLZqoS-NoNjMr_3jgI-1">
          <mxGeometry x="230" y="130" width="90" height="40" as="geometry" />
        </mxCell>
        <mxCell id="CjxLZqoS-NoNjMr_3jgI-44" style="rounded=0;orthogonalLoop=1;jettySize=auto;html=1;exitX=0.5;exitY=1;exitDx=0;exitDy=0;" edge="1" parent="CjxLZqoS-NoNjMr_3jgI-1" source="CjxLZqoS-NoNjMr_3jgI-8">
          <mxGeometry relative="1" as="geometry">
            <mxPoint x="419.9999999999998" y="300" as="targetPoint" />
          </mxGeometry>
        </mxCell>
        <mxCell id="CjxLZqoS-NoNjMr_3jgI-8" value="Elasticsearch&lt;div&gt;Node&lt;/div&gt;" style="rounded=1;whiteSpace=wrap;html=1;fillColor=#f5f5f5;fontColor=#333333;strokeColor=#666666;" vertex="1" parent="CjxLZqoS-NoNjMr_3jgI-1">
          <mxGeometry x="370" y="130" width="90" height="40" as="geometry" />
        </mxCell>
        <mxCell id="CjxLZqoS-NoNjMr_3jgI-45" style="rounded=0;orthogonalLoop=1;jettySize=auto;html=1;exitX=0.5;exitY=1;exitDx=0;exitDy=0;" edge="1" parent="CjxLZqoS-NoNjMr_3jgI-1" source="CjxLZqoS-NoNjMr_3jgI-9">
          <mxGeometry relative="1" as="geometry">
            <mxPoint x="419.9999999999998" y="300" as="targetPoint" />
          </mxGeometry>
        </mxCell>
        <mxCell id="CjxLZqoS-NoNjMr_3jgI-9" value="&lt;span style=&quot;background-color: initial;&quot;&gt;Kibana&lt;/span&gt;" style="rounded=1;whiteSpace=wrap;html=1;fillColor=#ffe6cc;strokeColor=#d79b00;" vertex="1" parent="CjxLZqoS-NoNjMr_3jgI-1">
          <mxGeometry x="500" y="130" width="90" height="40" as="geometry" />
        </mxCell>
        <mxCell id="CjxLZqoS-NoNjMr_3jgI-46" style="rounded=0;orthogonalLoop=1;jettySize=auto;html=1;exitX=0.5;exitY=1;exitDx=0;exitDy=0;" edge="1" parent="CjxLZqoS-NoNjMr_3jgI-1" source="CjxLZqoS-NoNjMr_3jgI-10">
          <mxGeometry relative="1" as="geometry">
            <mxPoint x="419.9999999999998" y="300" as="targetPoint" />
          </mxGeometry>
        </mxCell>
        <mxCell id="CjxLZqoS-NoNjMr_3jgI-10" value="Jenkins&lt;div&gt;(custom image)&lt;/div&gt;" style="rounded=1;whiteSpace=wrap;html=1;fillColor=#fff2cc;strokeColor=#d6b656;" vertex="1" parent="CjxLZqoS-NoNjMr_3jgI-1">
          <mxGeometry x="615" y="130" width="90" height="40" as="geometry" />
        </mxCell>
        <mxCell id="CjxLZqoS-NoNjMr_3jgI-47" style="rounded=0;orthogonalLoop=1;jettySize=auto;html=1;exitX=0.5;exitY=1;exitDx=0;exitDy=0;entryX=0.5;entryY=0;entryDx=0;entryDy=0;" edge="1" parent="CjxLZqoS-NoNjMr_3jgI-1" source="CjxLZqoS-NoNjMr_3jgI-11" target="CjxLZqoS-NoNjMr_3jgI-3">
          <mxGeometry relative="1" as="geometry" />
        </mxCell>
        <mxCell id="CjxLZqoS-NoNjMr_3jgI-11" value="python&lt;div&gt;container&lt;/div&gt;&lt;div&gt;(custom image)&lt;/div&gt;" style="rounded=1;whiteSpace=wrap;html=1;fillColor=#d5e8d4;strokeColor=#82b366;" vertex="1" parent="CjxLZqoS-NoNjMr_3jgI-1">
          <mxGeometry x="720" y="130" width="90" height="40" as="geometry" />
        </mxCell>
        <mxCell id="CjxLZqoS-NoNjMr_3jgI-13" value="elastic network" style="text;html=1;align=center;verticalAlign=middle;whiteSpace=wrap;rounded=0;" vertex="1" parent="CjxLZqoS-NoNjMr_3jgI-1">
          <mxGeometry x="710" y="30" width="110" height="30" as="geometry" />
        </mxCell>
        <mxCell id="CjxLZqoS-NoNjMr_3jgI-23" value="" style="endArrow=classic;html=1;rounded=0;entryX=1;entryY=0.5;entryDx=0;entryDy=0;exitX=0;exitY=0.5;exitDx=0;exitDy=0;fillColor=#ffe6cc;strokeColor=#d79b00;" edge="1" parent="CjxLZqoS-NoNjMr_3jgI-1" source="CjxLZqoS-NoNjMr_3jgI-9" target="CjxLZqoS-NoNjMr_3jgI-8">
          <mxGeometry width="50" height="50" relative="1" as="geometry">
            <mxPoint x="310" y="550" as="sourcePoint" />
            <mxPoint x="360" y="500" as="targetPoint" />
          </mxGeometry>
        </mxCell>
        <mxCell id="CjxLZqoS-NoNjMr_3jgI-21" value="" style="endArrow=classic;html=1;rounded=0;entryX=0;entryY=0.5;entryDx=0;entryDy=0;exitX=1;exitY=0.5;exitDx=0;exitDy=0;fillColor=#f8cecc;strokeColor=#b85450;" edge="1" parent="CjxLZqoS-NoNjMr_3jgI-1" source="CjxLZqoS-NoNjMr_3jgI-4" target="CjxLZqoS-NoNjMr_3jgI-8">
          <mxGeometry width="50" height="50" relative="1" as="geometry">
            <mxPoint x="310" y="550" as="sourcePoint" />
            <mxPoint x="360" y="500" as="targetPoint" />
          </mxGeometry>
        </mxCell>
        <mxCell id="CjxLZqoS-NoNjMr_3jgI-49" style="rounded=0;orthogonalLoop=1;jettySize=auto;html=1;exitX=0.5;exitY=1;exitDx=0;exitDy=0;entryX=0.5;entryY=0;entryDx=0;entryDy=0;" edge="1" parent="CjxLZqoS-NoNjMr_3jgI-1" source="CjxLZqoS-NoNjMr_3jgI-25" target="CjxLZqoS-NoNjMr_3jgI-3">
          <mxGeometry relative="1" as="geometry" />
        </mxCell>
        <mxCell id="CjxLZqoS-NoNjMr_3jgI-25" value="Filebeat" style="rounded=1;whiteSpace=wrap;html=1;fillColor=#dae8fc;strokeColor=#6c8ebf;" vertex="1" parent="CjxLZqoS-NoNjMr_3jgI-1">
          <mxGeometry x="20" y="130" width="90" height="40" as="geometry" />
        </mxCell>
        <mxCell id="CjxLZqoS-NoNjMr_3jgI-39" style="rounded=0;orthogonalLoop=1;jettySize=auto;html=1;exitX=0.5;exitY=1;exitDx=0;exitDy=0;entryX=0.5;entryY=0;entryDx=0;entryDy=0;" edge="1" parent="CjxLZqoS-NoNjMr_3jgI-1" source="CjxLZqoS-NoNjMr_3jgI-26" target="CjxLZqoS-NoNjMr_3jgI-3">
          <mxGeometry relative="1" as="geometry" />
        </mxCell>
        <mxCell id="CjxLZqoS-NoNjMr_3jgI-26" value="Metricbeat" style="rounded=1;whiteSpace=wrap;html=1;fillColor=#e1d5e7;strokeColor=#9673a6;" vertex="1" parent="CjxLZqoS-NoNjMr_3jgI-1">
          <mxGeometry x="120" y="130" width="90" height="40" as="geometry" />
        </mxCell>
        <mxCell id="CjxLZqoS-NoNjMr_3jgI-24" value="" style="endArrow=classic;html=1;rounded=0;edgeStyle=orthogonalEdgeStyle;entryX=0.466;entryY=0.011;entryDx=0;entryDy=0;entryPerimeter=0;exitX=0.5;exitY=0;exitDx=0;exitDy=0;fillColor=#d5e8d4;strokeColor=#82b366;" edge="1" parent="CjxLZqoS-NoNjMr_3jgI-1" source="CjxLZqoS-NoNjMr_3jgI-11" target="CjxLZqoS-NoNjMr_3jgI-8">
          <mxGeometry width="50" height="50" relative="1" as="geometry">
            <mxPoint x="310" y="550" as="sourcePoint" />
            <mxPoint x="360" y="500" as="targetPoint" />
            <Array as="points">
              <mxPoint x="765" y="100" />
              <mxPoint x="412" y="100" />
            </Array>
          </mxGeometry>
        </mxCell>
        <mxCell id="CjxLZqoS-NoNjMr_3jgI-27" value="" style="endArrow=classic;html=1;rounded=0;edgeStyle=orthogonalEdgeStyle;entryX=0.5;entryY=0;entryDx=0;entryDy=0;exitX=0.25;exitY=0;exitDx=0;exitDy=0;fillColor=#d5e8d4;strokeColor=#82b366;" edge="1" parent="CjxLZqoS-NoNjMr_3jgI-1" source="CjxLZqoS-NoNjMr_3jgI-11" target="CjxLZqoS-NoNjMr_3jgI-9">
          <mxGeometry width="50" height="50" relative="1" as="geometry">
            <mxPoint x="565" y="430" as="sourcePoint" />
            <mxPoint x="211" y="431" as="targetPoint" />
            <Array as="points">
              <mxPoint x="743" y="90" />
              <mxPoint x="545" y="90" />
            </Array>
          </mxGeometry>
        </mxCell>
        <mxCell id="CjxLZqoS-NoNjMr_3jgI-28" value="" style="endArrow=classic;html=1;rounded=0;edgeStyle=orthogonalEdgeStyle;entryX=0.5;entryY=0;entryDx=0;entryDy=0;exitX=0.75;exitY=0;exitDx=0;exitDy=0;fillColor=#d5e8d4;strokeColor=#82b366;" edge="1" parent="CjxLZqoS-NoNjMr_3jgI-1" source="CjxLZqoS-NoNjMr_3jgI-11" target="CjxLZqoS-NoNjMr_3jgI-10">
          <mxGeometry width="50" height="50" relative="1" as="geometry">
            <mxPoint x="565" y="430" as="sourcePoint" />
            <mxPoint x="345" y="430" as="targetPoint" />
            <Array as="points">
              <mxPoint x="787" y="80" />
              <mxPoint x="660" y="80" />
            </Array>
          </mxGeometry>
        </mxCell>
        <mxCell id="CjxLZqoS-NoNjMr_3jgI-29" value="" style="endArrow=classic;html=1;rounded=0;edgeStyle=orthogonalEdgeStyle;entryX=0.75;entryY=0;entryDx=0;entryDy=0;exitX=0.25;exitY=0;exitDx=0;exitDy=0;fillColor=#ffe6cc;strokeColor=#d79b00;" edge="1" parent="CjxLZqoS-NoNjMr_3jgI-1" source="CjxLZqoS-NoNjMr_3jgI-9" target="CjxLZqoS-NoNjMr_3jgI-4">
          <mxGeometry width="50" height="50" relative="1" as="geometry">
            <mxPoint x="460" y="550" as="sourcePoint" />
            <mxPoint x="510" y="500" as="targetPoint" />
          </mxGeometry>
        </mxCell>
        <mxCell id="CjxLZqoS-NoNjMr_3jgI-30" value="" style="endArrow=classic;html=1;rounded=0;edgeStyle=orthogonalEdgeStyle;entryX=0.25;entryY=0;entryDx=0;entryDy=0;exitX=0.75;exitY=0;exitDx=0;exitDy=0;fillColor=#e1d5e7;strokeColor=#9673a6;" edge="1" parent="CjxLZqoS-NoNjMr_3jgI-1" source="CjxLZqoS-NoNjMr_3jgI-26" target="CjxLZqoS-NoNjMr_3jgI-8">
          <mxGeometry width="50" height="50" relative="1" as="geometry">
            <mxPoint x="370" y="540" as="sourcePoint" />
            <mxPoint x="420" y="490" as="targetPoint" />
            <Array as="points">
              <mxPoint x="187" y="80" />
              <mxPoint x="393" y="80" />
            </Array>
          </mxGeometry>
        </mxCell>
        <mxCell id="CjxLZqoS-NoNjMr_3jgI-31" value="" style="endArrow=classic;html=1;rounded=0;edgeStyle=orthogonalEdgeStyle;exitX=0.808;exitY=0.018;exitDx=0;exitDy=0;exitPerimeter=0;entryX=0.25;entryY=0;entryDx=0;entryDy=0;fillColor=#dae8fc;strokeColor=#6c8ebf;" edge="1" parent="CjxLZqoS-NoNjMr_3jgI-1" source="CjxLZqoS-NoNjMr_3jgI-25" target="CjxLZqoS-NoNjMr_3jgI-8">
          <mxGeometry width="50" height="50" relative="1" as="geometry">
            <mxPoint x="198" y="430" as="sourcePoint" />
            <mxPoint x="403" y="430" as="targetPoint" />
            <Array as="points">
              <mxPoint x="93" y="100" />
              <mxPoint x="393" y="100" />
            </Array>
          </mxGeometry>
        </mxCell>
        <mxCell id="CjxLZqoS-NoNjMr_3jgI-32" value="" style="endArrow=classic;html=1;rounded=0;edgeStyle=orthogonalEdgeStyle;entryX=0;entryY=0;entryDx=0;entryDy=0;exitX=0.5;exitY=0;exitDx=0;exitDy=0;fillColor=#e1d5e7;strokeColor=#9673a6;" edge="1" parent="CjxLZqoS-NoNjMr_3jgI-1" source="CjxLZqoS-NoNjMr_3jgI-26" target="CjxLZqoS-NoNjMr_3jgI-8">
          <mxGeometry width="50" height="50" relative="1" as="geometry">
            <mxPoint x="310" y="510" as="sourcePoint" />
            <mxPoint x="360" y="460" as="targetPoint" />
            <Array as="points">
              <mxPoint x="165" y="90" />
              <mxPoint x="370" y="90" />
            </Array>
          </mxGeometry>
        </mxCell>
        <mxCell id="CjxLZqoS-NoNjMr_3jgI-33" value="" style="endArrow=classic;html=1;rounded=0;edgeStyle=orthogonalEdgeStyle;entryX=0.75;entryY=0;entryDx=0;entryDy=0;exitX=0.469;exitY=-0.046;exitDx=0;exitDy=0;exitPerimeter=0;fillColor=#dae8fc;strokeColor=#6c8ebf;" edge="1" parent="CjxLZqoS-NoNjMr_3jgI-1" source="CjxLZqoS-NoNjMr_3jgI-25" target="CjxLZqoS-NoNjMr_3jgI-8">
          <mxGeometry width="50" height="50" relative="1" as="geometry">
            <mxPoint x="175" y="430" as="sourcePoint" />
            <mxPoint x="380" y="430" as="targetPoint" />
            <Array as="points">
              <mxPoint x="62" y="110" />
              <mxPoint x="437" y="110" />
            </Array>
          </mxGeometry>
        </mxCell>
        <mxCell id="CjxLZqoS-NoNjMr_3jgI-48" style="edgeStyle=orthogonalEdgeStyle;rounded=0;orthogonalLoop=1;jettySize=auto;html=1;exitX=1;exitY=1;exitDx=0;exitDy=0;entryX=0.925;entryY=0;entryDx=0;entryDy=0;entryPerimeter=0;" edge="1" parent="CjxLZqoS-NoNjMr_3jgI-1" source="CjxLZqoS-NoNjMr_3jgI-12" target="CjxLZqoS-NoNjMr_3jgI-3">
          <mxGeometry relative="1" as="geometry">
            <Array as="points">
              <mxPoint x="820" y="260" />
              <mxPoint x="760" y="260" />
            </Array>
          </mxGeometry>
        </mxCell>
        <mxCell id="CjxLZqoS-NoNjMr_3jgI-52" value="Jenkins Pipeline workflow" style="swimlane;whiteSpace=wrap;html=1;" vertex="1" parent="1">
          <mxGeometry x="10" y="390" width="830" height="200" as="geometry" />
        </mxCell>
        <mxCell id="CjxLZqoS-NoNjMr_3jgI-61" style="edgeStyle=orthogonalEdgeStyle;rounded=0;orthogonalLoop=1;jettySize=auto;html=1;exitX=1;exitY=0.5;exitDx=0;exitDy=0;entryX=0;entryY=0.5;entryDx=0;entryDy=0;" edge="1" parent="CjxLZqoS-NoNjMr_3jgI-52" source="CjxLZqoS-NoNjMr_3jgI-54" target="CjxLZqoS-NoNjMr_3jgI-57">
          <mxGeometry relative="1" as="geometry" />
        </mxCell>
        <mxCell id="CjxLZqoS-NoNjMr_3jgI-68" style="edgeStyle=orthogonalEdgeStyle;rounded=0;orthogonalLoop=1;jettySize=auto;html=1;exitX=0.5;exitY=1;exitDx=0;exitDy=0;entryX=0.25;entryY=0;entryDx=0;entryDy=0;" edge="1" parent="CjxLZqoS-NoNjMr_3jgI-52" source="CjxLZqoS-NoNjMr_3jgI-54" target="CjxLZqoS-NoNjMr_3jgI-59">
          <mxGeometry relative="1" as="geometry">
            <Array as="points">
              <mxPoint x="260" y="160" />
              <mxPoint x="385" y="160" />
            </Array>
          </mxGeometry>
        </mxCell>
        <mxCell id="CjxLZqoS-NoNjMr_3jgI-54" value="Clone&lt;div&gt;Code&lt;/div&gt;" style="rhombus;whiteSpace=wrap;html=1;" vertex="1" parent="CjxLZqoS-NoNjMr_3jgI-52">
          <mxGeometry x="220" y="60" width="80" height="80" as="geometry" />
        </mxCell>
        <mxCell id="CjxLZqoS-NoNjMr_3jgI-63" style="edgeStyle=orthogonalEdgeStyle;rounded=0;orthogonalLoop=1;jettySize=auto;html=1;exitX=1;exitY=0.5;exitDx=0;exitDy=0;entryX=0;entryY=0.5;entryDx=0;entryDy=0;" edge="1" parent="CjxLZqoS-NoNjMr_3jgI-52" source="CjxLZqoS-NoNjMr_3jgI-55" target="CjxLZqoS-NoNjMr_3jgI-58">
          <mxGeometry relative="1" as="geometry" />
        </mxCell>
        <mxCell id="CjxLZqoS-NoNjMr_3jgI-65" style="edgeStyle=orthogonalEdgeStyle;rounded=0;orthogonalLoop=1;jettySize=auto;html=1;exitX=0.5;exitY=1;exitDx=0;exitDy=0;entryX=1;entryY=0;entryDx=0;entryDy=0;" edge="1" parent="CjxLZqoS-NoNjMr_3jgI-52" source="CjxLZqoS-NoNjMr_3jgI-55" target="CjxLZqoS-NoNjMr_3jgI-59">
          <mxGeometry relative="1" as="geometry" />
        </mxCell>
        <mxCell id="CjxLZqoS-NoNjMr_3jgI-55" value="Build&lt;div&gt;Docker&lt;/div&gt;" style="rhombus;whiteSpace=wrap;html=1;" vertex="1" parent="CjxLZqoS-NoNjMr_3jgI-52">
          <mxGeometry x="480" y="60" width="80" height="80" as="geometry" />
        </mxCell>
        <mxCell id="CjxLZqoS-NoNjMr_3jgI-60" style="edgeStyle=orthogonalEdgeStyle;rounded=0;orthogonalLoop=1;jettySize=auto;html=1;exitX=0.875;exitY=0.5;exitDx=0;exitDy=0;exitPerimeter=0;entryX=0;entryY=0.5;entryDx=0;entryDy=0;" edge="1" parent="CjxLZqoS-NoNjMr_3jgI-52" source="CjxLZqoS-NoNjMr_3jgI-56" target="CjxLZqoS-NoNjMr_3jgI-54">
          <mxGeometry relative="1" as="geometry" />
        </mxCell>
        <mxCell id="CjxLZqoS-NoNjMr_3jgI-56" value="Clear&lt;div&gt;Workspace&lt;/div&gt;" style="ellipse;shape=cloud;whiteSpace=wrap;html=1;" vertex="1" parent="CjxLZqoS-NoNjMr_3jgI-52">
          <mxGeometry x="60" y="60" width="120" height="80" as="geometry" />
        </mxCell>
        <mxCell id="CjxLZqoS-NoNjMr_3jgI-62" style="edgeStyle=orthogonalEdgeStyle;rounded=0;orthogonalLoop=1;jettySize=auto;html=1;exitX=1;exitY=0.5;exitDx=0;exitDy=0;entryX=0;entryY=0.5;entryDx=0;entryDy=0;" edge="1" parent="CjxLZqoS-NoNjMr_3jgI-52" source="CjxLZqoS-NoNjMr_3jgI-57" target="CjxLZqoS-NoNjMr_3jgI-55">
          <mxGeometry relative="1" as="geometry" />
        </mxCell>
        <mxCell id="CjxLZqoS-NoNjMr_3jgI-69" style="edgeStyle=orthogonalEdgeStyle;rounded=0;orthogonalLoop=1;jettySize=auto;html=1;exitX=0.5;exitY=1;exitDx=0;exitDy=0;entryX=0.5;entryY=0;entryDx=0;entryDy=0;" edge="1" parent="CjxLZqoS-NoNjMr_3jgI-52" source="CjxLZqoS-NoNjMr_3jgI-57" target="CjxLZqoS-NoNjMr_3jgI-59">
          <mxGeometry relative="1" as="geometry" />
        </mxCell>
        <mxCell id="CjxLZqoS-NoNjMr_3jgI-57" value="Verify&lt;div&gt;Code&lt;/div&gt;" style="rhombus;whiteSpace=wrap;html=1;" vertex="1" parent="CjxLZqoS-NoNjMr_3jgI-52">
          <mxGeometry x="350" y="60" width="80" height="80" as="geometry" />
        </mxCell>
        <mxCell id="CjxLZqoS-NoNjMr_3jgI-66" style="edgeStyle=orthogonalEdgeStyle;rounded=0;orthogonalLoop=1;jettySize=auto;html=1;exitX=0.5;exitY=1;exitDx=0;exitDy=0;entryX=1;entryY=0.5;entryDx=0;entryDy=0;" edge="1" parent="CjxLZqoS-NoNjMr_3jgI-52" source="CjxLZqoS-NoNjMr_3jgI-58" target="CjxLZqoS-NoNjMr_3jgI-59">
          <mxGeometry relative="1" as="geometry" />
        </mxCell>
        <mxCell id="CjxLZqoS-NoNjMr_3jgI-58" value="Run&lt;div&gt;Docker&lt;/div&gt;" style="rhombus;whiteSpace=wrap;html=1;" vertex="1" parent="CjxLZqoS-NoNjMr_3jgI-52">
          <mxGeometry x="600" y="60" width="80" height="80" as="geometry" />
        </mxCell>
        <mxCell id="CjxLZqoS-NoNjMr_3jgI-59" value="Fail job" style="rounded=0;whiteSpace=wrap;html=1;fillColor=#f8cecc;strokeColor=#b85450;" vertex="1" parent="CjxLZqoS-NoNjMr_3jgI-52">
          <mxGeometry x="355" y="170" width="120" height="30" as="geometry" />
        </mxCell>
      </root>
    </mxGraphModel>
  </diagram>
</mxfile>
